<svg width="44" height="44" viewBox="0 0 44 44" fill="none" xmlns="http://www.w3.org/2000/svg">
<rect width="44" height="44" rx="6" fill="white"/>
<g clip-path="url(#clip0_1_390)">
<path fill-rule="evenodd" clip-rule="evenodd" d="M16 10H19V13H25V16H23.3021C22.8561 18.5049 21.6786 20.7568 19.9984 22.5267C21.1985 23.1091 22.5361 23.4526 23.9492 23.4955L25.4103 19H29.0898L33.9648 34H30.8103L29.8353 31H24.6647L23.6897 34H20.5353L22.9926 26.4388C20.9896 26.2428 19.1225 25.5832 17.5 24.5687C15.5424 25.7926 13.2288 26.5 10.75 26.5H10V23.5H10.75C12.2742 23.5 13.7166 23.1503 15.0016 22.5267C14.0257 21.4987 13.2194 20.3082 12.6276 19H16.0327C16.4503 19.6524 16.9436 20.2517 17.5 20.7857C18.8311 19.5082 19.8005 17.8567 20.2391 16H10V13H16V10ZM28.8603 28L27.25 23.0453L25.6398 28H28.8603Z" fill="#BF1E24"/>
</g>
<defs>
<clipPath id="clip0_1_390">
<rect width="24" height="24" fill="white" transform="translate(10 10)"/>
</clipPath>
</defs>
</svg>
