<svg width="18" height="21" viewBox="0 0 18 21" fill="none" xmlns="http://www.w3.org/2000/svg">
<path fill-rule="evenodd" clip-rule="evenodd" d="M8.49393 10.2029L0.885927 4.16893C0.62754 3.96426 0.415372 3.70724 0.263357 3.41476C0.111342 3.12228 0.0229195 2.80095 0.00389556 2.47188C-0.0151283 2.1428 0.0356769 1.81342 0.152975 1.50537C0.270273 1.19732 0.451411 0.917572 0.684491 0.684491C0.917572 0.451411 1.19732 0.270273 1.50537 0.152975C1.81342 0.0356769 2.1428 -0.0151283 2.47188 0.00389556C2.80095 0.0229195 3.12228 0.111342 3.41476 0.263357C3.70724 0.415372 3.96426 0.62754 4.16893 0.885927L10.2029 8.49393C11.5099 7.92293 13.5029 7.84593 15.1819 9.52393C16.1969 10.5399 16.8289 11.7819 17.0449 12.9639C17.2549 14.1139 17.0939 15.3899 16.2419 16.2419C15.3909 17.0939 14.1139 17.2549 12.9649 17.0449C11.7829 16.8289 10.5399 16.1969 9.52493 15.1809C7.84493 13.5019 7.92293 11.5099 8.49393 10.2029Z" fill="white"/>
</svg>
